<mxfile host="app.diagrams.net" modified="2024-03-20T22:22:19.275Z" agent="Mozilla/5.0 (Windows NT 10.0; Win64; x64) AppleWebKit/537.36 (KHTML, like Gecko) Chrome/122.0.0.0 Safari/537.36" etag="FN6I72rSZLgFxDOkW0Pi" version="24.0.7" type="device">
  <diagram name="Page-1" id="SS2cRWPyXAL0T-rl7yd2">
    <mxGraphModel dx="847" dy="-423" grid="1" gridSize="10" guides="1" tooltips="1" connect="1" arrows="1" fold="1" page="1" pageScale="1" pageWidth="827" pageHeight="1169" math="0" shadow="0">
      <root>
        <mxCell id="0" />
        <mxCell id="1" parent="0" />
        <mxCell id="ue9Zm3nuNKWQ_GCb0CB4-3" value="&lt;b&gt;SWITCH&lt;/b&gt;" style="whiteSpace=wrap;html=1;aspect=fixed;fillColor=#f8cecc;strokeColor=#b85450;" vertex="1" parent="1">
          <mxGeometry x="1280" y="1320" width="115" height="115" as="geometry" />
        </mxCell>
        <mxCell id="ue9Zm3nuNKWQ_GCb0CB4-6" value="&lt;h1 style=&quot;color: rgb(0, 0, 0); font-family: Helvetica; font-style: normal; font-variant-ligatures: normal; font-variant-caps: normal; letter-spacing: normal; orphans: 2; text-align: center; text-indent: 0px; text-transform: none; widows: 2; word-spacing: 0px; -webkit-text-stroke-width: 0px; white-space: normal; background-color: rgb(251, 251, 251); text-decoration-thickness: initial; text-decoration-style: initial; text-decoration-color: initial;&quot;&gt;&lt;span style=&quot;font-size: 40px;&quot;&gt;Device Signals&lt;/span&gt;&lt;/h1&gt;" style="text;whiteSpace=wrap;html=1;" vertex="1" parent="1">
          <mxGeometry x="1435" y="1190" width="300" height="100" as="geometry" />
        </mxCell>
        <mxCell id="ue9Zm3nuNKWQ_GCb0CB4-7" value="&lt;b&gt;SEMAPHORE&lt;/b&gt;" style="shape=sumEllipse;perimeter=ellipsePerimeter;whiteSpace=wrap;html=1;backgroundOutline=1;fillColor=#dae8fc;strokeColor=#6c8ebf;" vertex="1" parent="1">
          <mxGeometry x="1520" y="1310" width="130" height="125" as="geometry" />
        </mxCell>
        <mxCell id="ue9Zm3nuNKWQ_GCb0CB4-8" value="" style="endArrow=classic;startArrow=classic;html=1;rounded=0;entryX=0;entryY=0.25;entryDx=0;entryDy=0;" edge="1" parent="1" target="ue9Zm3nuNKWQ_GCb0CB4-3">
          <mxGeometry width="50" height="50" relative="1" as="geometry">
            <mxPoint x="1110" y="1349" as="sourcePoint" />
            <mxPoint x="1170" y="1330" as="targetPoint" />
          </mxGeometry>
        </mxCell>
        <mxCell id="ue9Zm3nuNKWQ_GCb0CB4-9" value="POSITION&lt;br&gt;DISCRETE OUTPUT" style="edgeLabel;html=1;align=center;verticalAlign=middle;resizable=0;points=[];" vertex="1" connectable="0" parent="ue9Zm3nuNKWQ_GCb0CB4-8">
          <mxGeometry x="-0.1" y="1" relative="1" as="geometry">
            <mxPoint x="3" y="2" as="offset" />
          </mxGeometry>
        </mxCell>
        <mxCell id="ue9Zm3nuNKWQ_GCb0CB4-11" value="" style="endArrow=classic;html=1;rounded=0;exitX=0;exitY=0.75;exitDx=0;exitDy=0;" edge="1" parent="1" source="ue9Zm3nuNKWQ_GCb0CB4-3">
          <mxGeometry width="50" height="50" relative="1" as="geometry">
            <mxPoint x="1090" y="1470" as="sourcePoint" />
            <mxPoint x="1110" y="1406" as="targetPoint" />
          </mxGeometry>
        </mxCell>
        <mxCell id="ue9Zm3nuNKWQ_GCb0CB4-12" value="MOVEMENT&lt;br&gt;(DISCRETE INPUT)" style="edgeLabel;html=1;align=center;verticalAlign=middle;resizable=0;points=[];" vertex="1" connectable="0" parent="ue9Zm3nuNKWQ_GCb0CB4-11">
          <mxGeometry x="0.05" relative="1" as="geometry">
            <mxPoint as="offset" />
          </mxGeometry>
        </mxCell>
        <mxCell id="ue9Zm3nuNKWQ_GCb0CB4-15" value="" style="endArrow=classic;html=1;rounded=0;" edge="1" parent="1">
          <mxGeometry width="50" height="50" relative="1" as="geometry">
            <mxPoint x="1337.36" y="1435" as="sourcePoint" />
            <mxPoint x="1337" y="1520" as="targetPoint" />
          </mxGeometry>
        </mxCell>
        <mxCell id="ue9Zm3nuNKWQ_GCb0CB4-16" value="SPEED&lt;br&gt;(ANALOG INPUT)" style="edgeLabel;html=1;align=center;verticalAlign=middle;resizable=0;points=[];" vertex="1" connectable="0" parent="ue9Zm3nuNKWQ_GCb0CB4-15">
          <mxGeometry x="-0.1229" y="1" relative="1" as="geometry">
            <mxPoint as="offset" />
          </mxGeometry>
        </mxCell>
        <mxCell id="ue9Zm3nuNKWQ_GCb0CB4-17" value="" style="endArrow=classic;startArrow=classic;html=1;rounded=0;entryX=0.5;entryY=1;entryDx=0;entryDy=0;" edge="1" parent="1" target="ue9Zm3nuNKWQ_GCb0CB4-7">
          <mxGeometry width="50" height="50" relative="1" as="geometry">
            <mxPoint x="1585" y="1520" as="sourcePoint" />
            <mxPoint x="1630" y="1470" as="targetPoint" />
          </mxGeometry>
        </mxCell>
        <mxCell id="ue9Zm3nuNKWQ_GCb0CB4-19" value="STATE&lt;br&gt;(DISCRETE OUTPUT)" style="edgeLabel;html=1;align=center;verticalAlign=middle;resizable=0;points=[];" vertex="1" connectable="0" parent="ue9Zm3nuNKWQ_GCb0CB4-17">
          <mxGeometry x="0.0185" y="-2" relative="1" as="geometry">
            <mxPoint as="offset" />
          </mxGeometry>
        </mxCell>
        <mxCell id="ue9Zm3nuNKWQ_GCb0CB4-20" value="&lt;b&gt;MOVEMENT_SENSOR&lt;/b&gt;" style="html=1;whiteSpace=wrap;aspect=fixed;shape=isoRectangle;fillColor=#ffe6cc;strokeColor=#d79b00;" vertex="1" parent="1">
          <mxGeometry x="1860" y="1320" width="200" height="120" as="geometry" />
        </mxCell>
        <mxCell id="ue9Zm3nuNKWQ_GCb0CB4-21" value="" style="endArrow=classic;html=1;rounded=0;" edge="1" parent="1">
          <mxGeometry width="50" height="50" relative="1" as="geometry">
            <mxPoint x="1860" y="1380" as="sourcePoint" />
            <mxPoint x="1700" y="1380" as="targetPoint" />
          </mxGeometry>
        </mxCell>
        <mxCell id="ue9Zm3nuNKWQ_GCb0CB4-22" value="MOVEMENT&lt;br&gt;(DISCRETE INPUT)" style="edgeLabel;html=1;align=center;verticalAlign=middle;resizable=0;points=[];" vertex="1" connectable="0" parent="ue9Zm3nuNKWQ_GCb0CB4-21">
          <mxGeometry x="0.05" relative="1" as="geometry">
            <mxPoint as="offset" />
          </mxGeometry>
        </mxCell>
        <mxCell id="ue9Zm3nuNKWQ_GCb0CB4-23" value="" style="endArrow=classic;html=1;rounded=0;" edge="1" parent="1" source="ue9Zm3nuNKWQ_GCb0CB4-20">
          <mxGeometry width="50" height="50" relative="1" as="geometry">
            <mxPoint x="1960.07" y="1440" as="sourcePoint" />
            <mxPoint x="1959.71" y="1525" as="targetPoint" />
          </mxGeometry>
        </mxCell>
        <mxCell id="ue9Zm3nuNKWQ_GCb0CB4-24" value="SPEED&lt;br&gt;(ANALOG INPUT)" style="edgeLabel;html=1;align=center;verticalAlign=middle;resizable=0;points=[];" vertex="1" connectable="0" parent="ue9Zm3nuNKWQ_GCb0CB4-23">
          <mxGeometry x="-0.1229" y="1" relative="1" as="geometry">
            <mxPoint as="offset" />
          </mxGeometry>
        </mxCell>
      </root>
    </mxGraphModel>
  </diagram>
</mxfile>
